<?xml version="1.0" standalone="no"?>
<!DOCTYPE svg PUBLIC "-//W3C//DTD SVG 20010904//EN"
 "http://www.w3.org/TR/2001/REC-SVG-20010904/DTD/svg10.dtd">
<svg version="1.0" xmlns="http://www.w3.org/2000/svg"
 width="1536.000000pt" height="1024.000000pt" viewBox="0 0 1536.000000 1024.000000"
 preserveAspectRatio="xMidYMid meet">

<g transform="translate(0.000000,1024.000000) scale(0.100000,-0.100000)"
fill="#000000" stroke="none">
<path d="M0 5120 l0 -5120 7680 0 7680 0 0 5120 0 5120 -7680 0 -7680 0 0
-5120z m8008 3060 c29 -107 56 -198 60 -202 4 -4 92 -27 195 -50 103 -24 183
-44 178 -46 -8 -3 -335 62 -373 74 -18 5 -28 36 -87 259 l-37 140 -259 0 -259
0 -51 -185 c-28 -102 -54 -192 -57 -201 -4 -9 -31 -20 -74 -28 -38 -8 -141
-31 -228 -53 l-159 -39 -30 28 c-16 15 -79 84 -140 153 -61 69 -116 126 -123
128 -11 3 -421 -182 -437 -198 -5 -4 8 -98 29 -208 l37 -200 -49 -45 c-27 -24
-106 -93 -177 -152 -112 -94 -131 -106 -154 -100 -15 3 -101 35 -191 71 -90
35 -165 64 -167 64 -4 0 -108 -125 -225 -270 -95 -117 -110 -134 -110 -127 0
14 110 157 306 395 l21 26 59 -22 c32 -12 120 -46 194 -75 l135 -54 100 87
c55 47 133 112 173 144 39 31 72 61 72 67 0 6 -5 7 -12 3 -8 -5 -9 2 -5 25 4
18 3 30 -2 27 -8 -5 -58 234 -62 294 -3 56 -1 59 112 115 117 59 348 157 359
153 4 -2 69 -72 145 -156 110 -123 142 -153 159 -150 11 3 112 25 223 49 l202
44 7 30 c11 53 96 349 106 368 8 16 29 17 275 15 l267 -3 54 -195z m855 -4
c222 -102 295 -135 313 -140 12 -4 30 -16 40 -28 23 -26 39 -32 -215 82 l-204
91 -26 -33 c-14 -18 -53 -62 -86 -98 -33 -36 -82 -93 -110 -127 -50 -63 -63
-70 -100 -52 -16 8 -14 8 11 5 30 -5 37 1 134 117 56 67 118 141 138 165 20
23 40 42 45 42 4 0 32 -11 60 -24z m386 -405 c-7 -23 -14 -39 -16 -37 -3 2 1
23 8 45 7 23 14 39 16 37 3 -2 -1 -23 -8 -45z m-1269 -112 c111 -12 285 -48
388 -79 55 -17 70 -25 63 -34 -8 -10 15 -22 92 -50 156 -58 341 -153 490 -254
39 -26 47 -42 21 -42 -8 0 -43 -10 -77 -22 l-62 -21 -59 38 c-92 59 -268 140
-411 189 -72 25 -119 45 -106 46 21 0 23 3 16 38 -4 20 -11 43 -17 50 -13 15
-5 15 35 -1 18 -8 50 -17 72 -20 27 -4 16 2 -35 19 -41 14 -83 23 -92 20 -10
-2 -16 -1 -13 4 3 4 -37 17 -88 29 -178 41 -303 54 -534 55 -122 0 -219 3
-217 5 2 3 98 8 212 11 l207 7 -155 1 c-141 2 -271 -7 -390 -25 -40 -6 -42 -7
-20 -15 17 -5 11 -6 -20 -3 -25 3 -70 -2 -100 -10 l-55 -14 45 4 c40 4 42 4
15 -5 -16 -6 -40 -8 -53 -5 -31 7 -166 -36 -149 -47 7 -5 1 -6 -14 -3 -29 7
-182 -52 -173 -66 3 -5 -2 -6 -10 -3 -14 5 -41 -7 -248 -120 -131 -71 -295
-198 -441 -342 -136 -134 -129 -110 9 31 164 167 358 304 586 415 176 85 274
121 448 166 264 67 547 85 840 53z m-587 -46 c-13 -2 -33 -2 -45 0 -13 2 -3 4
22 4 25 0 35 -2 23 -4z m-140 -20 c-7 -2 -19 -2 -25 0 -7 3 -2 5 12 5 14 0 19
-2 13 -5z m-153 -33 c-8 -5 -22 -9 -30 -9 -10 0 -8 3 5 9 27 12 43 12 25 0z
m1127 -16 c-3 -3 -12 -4 -19 -1 -8 3 -5 6 6 6 11 1 17 -2 13 -5z m418 -66 c6
-5 -17 0 -50 13 -33 12 -64 26 -70 31 -13 12 107 -32 120 -44z m-1760 12 c-3
-5 -12 -10 -18 -10 -7 0 -6 4 3 10 19 12 23 12 15 0z m-45 -20 c-8 -5 -19 -10
-25 -10 -5 0 -3 5 5 10 8 5 20 10 25 10 6 0 3 -5 -5 -10z m1435 -30 c13 -5 14
-9 5 -9 -8 0 -24 4 -35 9 -13 5 -14 9 -5 9 8 0 24 -4 35 -9z m2308 -167 c32
-3 54 -9 49 -12 -6 -3 18 -6 51 -7 59 0 192 -30 322 -73 208 -67 455 -207 620
-351 l70 -61 20 27 c58 77 155 196 155 189 0 -17 141 -951 146 -967 3 -10 1
-18 -5 -18 -6 0 -11 7 -11 15 0 17 -42 103 -70 145 -9 14 -47 72 -85 130 -96
148 -185 260 -290 365 -104 104 -171 159 -185 150 -6 -3 -7 1 -4 9 3 9 1 16
-5 16 -7 0 -22 9 -34 20 -12 11 -27 18 -35 15 -7 -2 -10 -1 -7 4 13 22 -231
158 -360 201 -39 13 -89 32 -112 42 -35 16 -132 38 -167 38 -4 0 -5 -7 -2 -16
5 -12 0 -15 -24 -12 -16 1 -38 -4 -47 -12 -10 -9 -34 -20 -52 -26 -25 -7 -37
-17 -42 -37 -5 -20 -4 -27 7 -27 8 0 14 -5 14 -11 0 -7 -7 -8 -17 -4 -10 4
-29 9 -43 12 -16 2 -12 -1 10 -9 19 -7 33 -17 30 -23 -6 -12 0 -12 -160 9 -68
9 -160 16 -203 16 -173 0 -450 -43 -616 -96 -62 -19 -120 -33 -128 -30 -8 3
-12 2 -9 -3 6 -9 -158 -83 -190 -85 -12 0 -20 -4 -18 -8 3 -4 -35 -27 -84 -50
-80 -40 -90 -42 -104 -28 -10 9 -15 27 -14 42 2 15 -1 25 -5 22 -5 -3 -9 0 -9
6 0 6 -5 8 -11 4 -8 -4 -7 -9 2 -15 8 -5 10 -9 4 -9 -5 0 -3 -5 5 -10 11 -7
11 -10 2 -10 -7 0 -11 -4 -8 -9 7 -11 -22 -23 -36 -15 -5 3 -7 12 -4 20 5 12
2 12 -17 3 -33 -18 -72 -62 -70 -79 2 -10 1 -11 -3 -2 -8 18 -35 -5 -27 -24 3
-8 0 -14 -7 -14 -6 0 -8 5 -5 10 14 23 -13 7 -53 -30 -36 -34 -39 -40 -21 -40
21 0 21 0 2 -17 -10 -10 -13 -14 -6 -10 6 5 18 5 24 1 8 -4 9 -3 5 4 -4 7 -3
12 3 12 29 0 12 -22 -55 -74 -42 -32 -79 -54 -86 -50 -6 4 -8 3 -5 -3 4 -6
-22 -33 -56 -61 -34 -28 -75 -62 -91 -76 -66 -58 -41 -20 75 115 159 187 390
384 601 515 231 143 627 296 879 340 180 31 407 37 602 17z m-18 -243 c-3 -5
-12 -10 -18 -10 -7 0 -6 4 3 10 19 12 23 12 15 0z m98 -4 c28 -13 21 -34 -10
-29 -36 6 -73 24 -73 35 0 10 55 6 83 -6z m-119 -22 c9 -3 16 -10 16 -14 0
-10 -38 -1 -46 11 -6 10 7 12 30 3z m76 -24 c10 0 21 -7 24 -16 3 -8 2 -13 -2
-10 -4 2 -14 0 -22 -5 -13 -9 -13 -10 0 -8 33 3 54 -1 45 -10 -11 -11 -165 29
-165 42 0 5 9 6 20 3 11 -3 29 -9 41 -12 16 -4 22 0 26 17 4 13 8 18 11 11 2
-6 12 -12 22 -12z m-5470 -26 c0 -8 -19 -13 -24 -6 -3 5 1 9 9 9 8 0 15 -2 15
-3z m61 -71 c7 -7 7 -13 1 -17 -5 -3 -17 3 -27 13 -15 17 -15 19 -1 17 9 -1
21 -7 27 -13z m5579 -8 c14 -8 21 -14 15 -14 -5 0 -21 6 -35 14 -14 8 -20 14
-15 14 6 0 21 -6 35 -14z m-478 -29 c106 -20 241 -67 347 -121 50 -25 91 -47
91 -50 0 -3 -39 15 -87 39 -110 54 -213 90 -326 112 -83 16 -119 14 -87 -6 10
-7 11 -10 3 -10 -30 0 -10 -20 30 -29 l42 -11 -42 5 c-28 4 -43 1 -43 -6 0 -6
6 -9 13 -6 8 3 19 2 26 -2 7 -5 -92 -11 -221 -14 -250 -7 -315 -16 -544 -77
-66 -18 -168 -50 -228 -71 -118 -42 -135 -46 -96 -24 14 8 19 14 11 15 -10 0
-11 3 -2 13 6 8 8 17 4 20 -3 4 0 7 7 7 7 0 11 3 7 6 -3 4 -40 -12 -82 -35
-42 -22 -73 -37 -70 -32 9 15 183 106 286 150 183 77 350 120 551 141 109 11
314 5 410 -14z m-4342 10 c0 -2 -8 -10 -17 -17 -16 -13 -17 -12 -4 4 13 16 21
21 21 13z m4962 -50 c13 -8 26 -15 31 -16 4 0 6 -3 5 -7 -4 -10 -16 -6 -49 18
-15 10 -32 19 -37 19 -6 0 -14 4 -17 10 -8 12 35 -3 67 -24z m-5631 -23 c13
-14 18 -23 10 -18 -9 5 -12 3 -9 -6 3 -8 10 -13 15 -12 6 1 20 -8 32 -21 16
-17 18 -23 7 -23 -8 0 -13 4 -11 8 3 3 -2 12 -10 19 -8 7 -15 9 -15 5 0 -4 -7
-2 -15 5 -8 7 -15 21 -15 31 0 11 -3 18 -7 18 -17 -3 -24 2 -18 11 8 14 8 14
36 -17z m602 -14 c-20 -33 -41 -54 -48 -47 -5 4 53 78 61 78 3 0 -3 -14 -13
-31z m5094 -4 c0 -8 -4 -12 -9 -9 -5 3 -6 10 -3 15 9 13 12 11 12 -6z m35 -7
c-9 -9 -9 -15 1 -27 11 -14 10 -14 -6 -2 -13 10 -15 17 -6 27 6 8 14 14 17 14
3 0 1 -5 -6 -12z m-2104 -59 c2 6 8 11 14 11 6 0 5 -7 -3 -16 -12 -15 -11 -16
11 -9 l25 7 -25 -19 c-14 -11 -47 -32 -75 -47 -27 -15 -67 -41 -87 -57 -33
-26 -40 -28 -58 -17 -25 16 -26 28 -2 29 10 0 12 3 4 6 -6 2 -10 9 -6 14 8 13
48 11 62 -3 9 -9 15 -9 24 0 9 9 8 12 -5 12 -28 0 -19 20 16 35 27 11 29 15
14 20 -17 7 -16 8 3 22 18 13 24 13 46 -2 14 -9 31 -14 37 -11 7 2 5 5 -4 5
-9 1 -23 8 -30 18 -13 15 -12 15 11 3 17 -9 25 -10 28 -1z m2175 -11 c18 -12
50 -40 72 -61 43 -43 21 -29 -64 41 -56 45 -60 57 -8 20z m-5727 -75 c-8 -15
-15 -25 -16 -21 0 12 23 58 27 54 3 -2 -2 -17 -11 -33z m5869 -52 c-6 -5 -25
10 -25 20 0 5 6 4 14 -3 8 -7 12 -15 11 -17z m-5894 -4 c-10 -9 -11 -8 -5 6 3
10 9 15 12 12 3 -3 0 -11 -7 -18z m3808 -1 c-2 -2 -15 -9 -29 -15 -24 -11 -24
-11 -6 3 16 13 49 24 35 12z m2112 -23 c13 -16 12 -17 -3 -4 -10 7 -18 15 -18
17 0 8 8 3 21 -13z m-2407 -115 c-24 -29 -154 -125 -154 -114 0 2 24 21 53 42
28 21 68 53 87 71 44 42 49 42 14 1z m3342 -258 c44 -227 43 -533 -3 -760 -28
-142 -116 -420 -129 -408 -2 2 8 35 22 73 28 77 26 107 -10 139 -26 23 -52 66
-48 79 1 5 -2 6 -8 2 -5 -3 -10 -1 -10 6 0 8 -5 7 -16 -2 -15 -12 -16 -11 -11
6 23 73 60 300 73 447 l5 67 47 3 47 3 3 175 c2 119 -2 209 -13 280 -8 58 -18
121 -20 140 -11 74 48 -131 71 -250z m-5237 126 c24 -29 2 -64 -58 -92 -97
-46 -193 -84 -201 -79 -4 3 -10 16 -13 30 -4 25 3 30 122 90 69 35 129 64 132
64 4 1 12 -5 18 -13z m2521 -198 c72 -38 85 -64 83 -171 -3 -166 -40 -299 -94
-339 -38 -27 -100 -51 -97 -36 2 7 -13 14 -37 18 -56 8 -68 17 -54 41 13 25 5
36 -15 20 -9 -7 -24 -10 -37 -6 -12 4 -19 3 -16 -1 3 -5 -26 -8 -64 -7 l-69 2
-1 -32 c-1 -24 -3 -26 -6 -9 -6 31 -18 27 -31 -10 -7 -20 -10 -23 -7 -8 3 14
5 37 5 53 l0 27 114 0 c73 0 117 4 122 11 3 6 8 32 10 58 2 25 9 69 15 98 19
81 16 83 -109 83 -76 0 -113 -4 -120 -12 -5 -7 -16 -48 -22 -90 l-13 -78 -123
0 c-94 0 -122 3 -119 13 2 6 11 59 20 117 26 161 64 218 174 261 39 15 78 18
246 19 189 0 203 -1 245 -22z m850 0 c59 -31 83 -72 81 -146 -2 -86 -13 -126
-36 -129 -19 -3 -19 -3 0 6 22 11 6 15 -19 5 -9 -3 -13 -11 -10 -16 4 -6 -2
-8 -12 -6 -11 2 -19 10 -19 17 0 8 -7 16 -15 18 -13 4 -13 3 0 -6 13 -10 13
-11 0 -11 -12 0 -12 -2 -2 -9 17 -10 -4 -16 -91 -27 l-59 -7 7 57 7 56 -116 0
c-111 0 -117 -1 -125 -22 -12 -29 -44 -248 -38 -255 3 -2 18 2 34 10 55 28
133 40 232 35 94 -5 141 -18 141 -39 0 -7 -10 -9 -26 -5 -16 4 -23 3 -20 -3 4
-6 -6 -8 -26 -5 -18 4 -66 7 -105 8 -40 2 -76 6 -80 11 -5 4 2 4 15 1 13 -5
22 -3 22 3 0 13 -43 13 -80 1 -23 -7 -23 -8 -3 -9 12 -1 24 -5 27 -10 4 -5 -4
-7 -16 -4 -19 4 -20 3 -8 -6 8 -6 11 -11 5 -11 -5 0 -4 -4 4 -9 23 -15 -13
-45 -41 -35 -13 5 -27 7 -32 5 -5 -1 -13 4 -17 11 -5 7 -36 14 -78 16 -39 2
-69 8 -66 12 3 5 1 11 -5 15 -6 4 -10 -7 -11 -27 -1 -30 -2 -31 -8 -8 -7 24
-8 24 -21 -12 -8 -21 -17 -38 -20 -38 -4 0 -11 17 -17 38 l-10 37 -12 -30
c-10 -23 -14 -26 -21 -15 -8 12 -10 10 -10 -9 0 -13 -3 -22 -6 -19 -3 4 2 57
11 120 50 350 71 397 203 449 40 15 78 18 247 19 189 0 203 -1 245 -22z m833
11 c22 -6 55 -25 75 -44 34 -31 36 -37 40 -101 2 -47 -7 -129 -28 -254 -18
-102 -33 -186 -35 -188 -1 -1 -2 29 -2 68 0 40 4 65 9 58 6 -10 8 -9 8 2 0 8
-5 22 -10 30 -5 8 -10 10 -10 5 0 -6 -13 -12 -30 -13 -16 -1 -30 2 -30 8 0 5
5 10 10 10 6 0 10 5 10 10 0 6 -9 10 -19 10 -11 0 -26 7 -35 15 -21 22 -86 20
-87 -2 0 -15 -2 -15 -8 2 -6 15 -10 9 -15 -28 -4 -27 -10 -47 -12 -44 -3 2 2
48 11 101 8 53 15 103 15 111 0 13 -19 15 -119 15 -83 0 -122 -4 -129 -12 -5
-7 -15 -52 -22 -100 -7 -49 -16 -85 -21 -82 -5 3 -6 -10 -3 -28 6 -31 6 -32
-9 -13 -8 11 -18 17 -22 13 -4 -3 -22 0 -41 8 -19 8 -40 12 -46 8 -6 -4 -22
-8 -35 -10 -20 -2 -23 2 -23 34 0 28 -3 33 -10 22 -8 -12 -11 -11 -17 9 -6 23
-7 24 -15 5 -11 -28 2 89 19 165 25 114 61 163 143 200 41 19 65 21 250 21
115 0 222 -5 243 -11z m-7986 -31 c-4 -13 -20 -102 -37 -198 -16 -96 -33 -186
-35 -200 l-6 -25 128 1 c92 1 109 0 61 -5 -67 -6 -101 -20 -57 -23 13 0 32 0
42 0 17 2 17 1 3 -13 -20 -20 -99 -30 -123 -16 -10 6 -13 11 -5 11 26 0 0 20
-27 20 -15 0 -32 5 -39 12 -9 9 -12 8 -12 -4 0 -9 8 -19 18 -22 10 -3 6 -4 -8
-3 -17 1 -26 9 -28 23 -2 17 -8 20 -32 16 -17 -2 -30 -9 -30 -14 0 -5 -7 -2
-16 7 -13 13 -19 14 -25 4 -5 -8 -10 0 -14 24 -4 19 -4 41 1 48 4 8 3 10 -5 5
-8 -6 -11 3 -9 29 1 20 -3 40 -10 44 -9 5 -7 36 8 132 11 68 22 134 25 147 5
21 9 22 121 22 115 0 116 0 111 -22z m493 3 c0 -18 -32 -208 -65 -388 -15 -81
-19 -91 -32 -78 -18 19 -22 19 -44 -1 -16 -15 -19 -14 -35 4 -18 22 -44 19
-44 -4 0 -8 -5 -14 -12 -14 -6 0 -8 3 -5 7 4 3 -2 12 -13 20 -11 8 -20 21 -20
29 0 8 -4 12 -10 9 -10 -6 -13 10 -11 55 2 30 38 253 52 328 l10 52 115 0
c104 0 114 -2 114 -19z m701 -1 c49 -25 79 -72 79 -123 0 -40 -68 -469 -76
-476 -2 -2 -4 9 -4 25 0 22 -3 26 -10 14 -6 -10 -10 -11 -10 -2 0 6 -5 12 -11
12 -6 0 -8 -9 -4 -22 5 -21 5 -21 -8 -6 -12 15 -15 15 -28 3 -10 -10 -26 -13
-51 -9 -35 6 -36 8 -43 60 -8 69 -22 61 -31 -17 -4 -32 -10 -61 -14 -64 -7 -5
11 141 39 308 14 85 15 109 5 118 -16 13 -181 9 -199 -5 -9 -7 -24 -75 -41
-181 -28 -176 -40 -222 -37 -132 1 28 -2 46 -6 38 -4 -7 -6 -24 -4 -39 2 -15
0 -21 -3 -14 -3 6 -12 12 -20 12 -8 0 -14 5 -14 10 0 17 -22 11 -40 -10 -21
-24 -47 -17 -53 13 -3 21 -4 22 -12 2 -11 -25 -30 -45 -44 -45 -6 0 -11 -5
-11 -12 0 -6 -2 -9 -5 -6 -3 3 3 59 14 124 11 66 25 157 31 203 17 127 50 179
140 220 40 18 65 21 238 21 175 0 197 -2 233 -20z m843 5 c42 -20 66 -63 66
-117 0 -23 -11 -106 -25 -182 -14 -77 -25 -151 -25 -164 0 -34 -40 -118 -49
-103 -10 15 -66 9 -67 -7 -1 -7 -2 -19 -3 -27 -1 -11 -13 -15 -41 -15 -22 0
-40 4 -40 9 0 9 -11 11 -74 11 -19 1 -30 7 -33 20 -4 13 -14 20 -32 21 l-26 1
25 7 c22 7 19 9 -21 15 -26 5 -55 6 -65 3 -11 -3 -5 -5 14 -6 19 -1 31 -5 27
-11 -10 -15 -55 -12 -61 5 -4 8 -11 15 -17 15 -5 0 -3 -8 6 -18 10 -10 17 -31
17 -46 0 -20 6 -29 20 -33 16 -4 18 -8 9 -20 -13 -15 -102 -16 -93 -1 7 11
-35 25 -71 23 -16 -1 -42 4 -56 11 -15 7 -29 10 -33 7 -3 -3 -15 2 -26 12 -20
18 -20 17 -20 -14 0 -19 4 -30 10 -26 6 3 7 -1 4 -10 -5 -11 -10 -13 -17 -6
-11 11 -2 90 44 380 25 154 28 190 18 220 -6 20 -16 42 -22 49 -16 20 614 17
657 -3z m726 -15 c0 -16 9 -155 19 -307 24 -339 33 -549 21 -478 -4 28 -9 84
-10 125 -2 57 -4 69 -11 50 -8 -22 -8 -21 -5 9 3 31 2 32 -11 16 -7 -11 -13
-15 -14 -9 0 5 -4 0 -9 -11 -8 -18 -9 -17 -9 8 -1 30 -21 38 -21 8 0 -10 -8
-22 -17 -25 -22 -9 -45 21 -37 46 3 10 1 18 -5 18 -6 0 -11 10 -11 23 0 16 -3
18 -9 8 -6 -9 -10 -10 -16 -2 -5 9 -10 9 -20 1 -18 -15 -25 8 -25 78 0 98 -13
253 -20 245 -4 -4 -26 -65 -50 -135 -24 -71 -48 -124 -53 -121 -6 3 -7 1 -3
-6 8 -12 -33 -141 -47 -152 -5 -3 -8 -9 -8 -13 3 -22 -1 -27 -16 -22 -9 4 -20
1 -25 -6 -6 -10 -8 -8 -8 5 0 13 -9 17 -37 19 -21 0 -45 2 -53 2 -10 1 -14 10
-13 26 1 15 0 18 -3 8 -3 -10 -9 -18 -12 -19 -4 0 -14 -2 -23 -4 -14 -2 -8 21
28 124 25 69 70 196 100 281 30 85 61 174 70 198 l15 42 174 0 174 0 0 -30z
m670 3 c0 -16 -7 -64 -15 -108 -7 -45 -30 -191 -49 -325 -20 -135 -41 -278
-47 -317 -16 -102 -15 -103 84 -103 56 0 88 4 94 13 5 6 15 55 22 107 6 52 23
165 37 250 39 249 52 330 65 423 l12 87 114 0 c112 0 113 0 113 -23 0 -35 -26
-211 -75 -512 -24 -148 -47 -292 -51 -320 -12 -93 -51 -156 -119 -193 -40 -22
-374 -31 -441 -12 -61 17 -100 64 -109 129 -4 27 -5 54 -2 58 5 9 22 108 92
538 25 154 48 292 51 308 l6 27 109 0 109 0 0 -27z m1110 15 c0 -16 -18 -135
-25 -165 -5 -22 -10 -23 -95 -23 -50 0 -90 -3 -90 -6 0 -18 -126 -799 -135
-841 -5 -22 -9 -23 -121 -23 l-116 0 6 28 c3 15 10 59 16 97 11 70 105 651
115 713 l6 32 -96 0 -97 0 6 28 c3 15 10 60 16 100 l12 72 299 0 c233 0 299
-3 299 -12z m306 -20 c-4 -18 -13 -82 -22 -143 -8 -60 -43 -285 -77 -500 l-63
-390 -112 -3 c-89 -2 -112 0 -112 11 0 7 24 168 54 358 30 189 67 424 82 522
l28 177 114 0 115 0 -7 -32z m370 -15 c-7 -44 -72 -462 -115 -725 l-17 -108
148 0 c112 0 148 -3 148 -12 0 -7 -5 -50 -12 -95 l-11 -83 -269 0 c-252 0
-269 1 -264 18 2 9 7 35 10 57 6 38 123 782 147 928 l11 67 115 0 115 0 -6
-47z m3304 -119 c69 -25 151 -58 184 -72 l58 -26 -6 -110 c-12 -202 -58 -405
-133 -596 -36 -91 -145 -289 -214 -390 -378 -551 -1087 -985 -1715 -1050 -53
-6 -99 -8 -104 -5 -7 5 41 303 53 322 4 6 30 13 58 17 58 8 252 65 349 103
105 41 349 166 441 225 334 217 603 505 754 807 119 238 174 515 148 744 -5
42 -7 77 -4 77 3 0 61 -21 131 -46z m-8823 -316 c-3 -7 -5 -2 -5 12 0 14 2 19
5 13 2 -7 2 -19 0 -25z m7610 0 c-3 -7 -5 -2 -5 12 0 14 2 19 5 13 2 -7 2 -19
0 -25z m43 -3 c0 -5 -5 -3 -10 5 -5 8 -10 20 -10 25 0 6 5 3 10 -5 5 -8 10
-19 10 -25z m667 13 c-3 -8 -6 -5 -6 6 -1 11 2 17 5 13 3 -3 4 -12 1 -19z
m-2031 -43 c36 -36 32 -58 -8 -50 -39 9 -68 32 -68 54 0 27 48 24 76 -4z
m1311 -27 c-3 -8 -6 -5 -6 6 -1 11 2 17 5 13 3 -3 4 -12 1 -19z m-7398 3 c12
-8 12 -12 -2 -26 -9 -9 -21 -14 -26 -11 -5 4 -12 0 -14 -6 -3 -7 -6 2 -6 20
-1 33 17 42 48 23z m7270 -75 c1 -57 -5 -40 -12 29 -3 37 -2 51 3 35 4 -14 8
-43 9 -64z m-602 42 c-3 -8 -6 -5 -6 6 -1 11 2 17 5 13 3 -3 4 -12 1 -19z
m107 16 c12 -5 13 -10 5 -25 -14 -27 -29 -24 -29 6 0 27 1 28 24 19z m241 -4
c3 -5 -1 -10 -9 -10 -9 0 -16 5 -16 10 0 6 4 10 9 10 6 0 13 -4 16 -10z
m-7238 -32 c-3 -8 -6 -5 -6 6 -1 11 2 17 5 13 3 -3 4 -12 1 -19z m243 12 c0
-5 -5 -10 -11 -10 -5 0 -7 5 -4 10 3 6 8 10 11 10 2 0 4 -4 4 -10z m217 4 c-3
-3 -12 -4 -19 -1 -8 3 -5 6 6 6 11 1 17 -2 13 -5z m2451 -85 l-3 -31 -92 -1
c-51 -1 -88 2 -84 6 5 5 45 7 90 5 l81 -3 2 60 c1 35 3 46 5 28 2 -18 3 -47 1
-64z m3642 81 c0 -5 -4 -10 -10 -10 -5 0 -10 5 -10 10 0 6 5 10 10 10 6 0 10
-4 10 -10z m-4260 -15 c0 -2 -6 -5 -13 -8 -8 -3 -14 1 -14 8 0 7 6 11 14 8 7
-3 13 -6 13 -8z m-1960 -31 c0 -13 -11 -15 -62 -12 -46 2 -62 0 -61 -9 2 -8
-4 -10 -14 -6 -14 6 -14 8 3 20 10 7 27 13 38 13 17 0 18 2 7 9 -11 7 -6 10
20 13 41 4 69 -7 69 -28z m737 14 c-3 -8 -6 -5 -6 6 -1 11 2 17 5 13 3 -3 4
-12 1 -19z m1226 -9 c-15 -16 -22 -18 -28 -8 -5 8 -4 10 3 5 6 -4 17 2 24 13
7 11 14 18 17 15 3 -2 -4 -14 -16 -25z m3892 1 c0 -13 6 -25 13 -28 9 -3 13 3
12 14 -4 31 -1 44 10 44 6 0 10 -13 10 -28 0 -27 3 -29 42 -30 78 -3 51 -12
-36 -12 -76 0 -87 2 -82 16 3 9 6 25 6 36 0 11 5 18 13 16 6 -3 12 -15 12 -28z
m419 11 c10 -11 15 -25 11 -30 -3 -6 -1 -11 4 -11 6 0 11 -12 10 -27 l-1 -28
-8 25 c-4 14 -8 18 -9 11 -1 -11 -4 -12 -13 -3 -8 8 -8 15 1 26 9 11 8 17 -4
30 -9 9 -21 13 -27 10 -7 -4 -8 -2 -4 4 10 17 20 15 40 -7z m-4564 -41 c0 -11
-39 -34 -46 -27 -6 6 25 37 37 37 5 0 9 -4 9 -10z m-58 -26 c-4 -23 -6 -24
-15 -9 -8 14 2 32 19 35 1 0 -1 -12 -4 -26z m955 4 c-3 -8 -6 -5 -6 6 -1 11 2
17 5 13 3 -3 4 -12 1 -19z m-443 -28 c-9 -16 -17 -30 -19 -30 -2 0 1 14 6 30
6 17 15 30 19 30 5 0 2 -13 -6 -30z m-2517 -2 c-3 -8 -6 -5 -6 6 -1 11 2 17 5
13 3 -3 4 -12 1 -19z m1883 0 c0 -16 -3 -19 -11 -11 -6 6 -8 16 -5 22 11 17
16 13 16 -11z m-813 -35 c-3 -10 -5 -2 -5 17 0 19 2 27 5 18 2 -10 2 -26 0
-35z m963 37 c0 -5 -5 -10 -11 -10 -5 0 -7 5 -4 10 3 6 8 10 11 10 2 0 4 -4 4
-10z m197 -47 c-3 -10 -5 -4 -5 12 0 17 2 24 5 18 2 -7 2 -21 0 -30z m4410 5
c-3 -8 -6 -5 -6 6 -1 11 2 17 5 13 3 -3 4 -12 1 -19z m-4770 -10 c-3 -8 -6 -5
-6 6 -1 11 2 17 5 13 3 -3 4 -12 1 -19z m4530 0 c-3 -8 -6 -5 -6 6 -1 11 2 17
5 13 3 -3 4 -12 1 -19z m-6410 -10 c-3 -8 -6 -5 -6 6 -1 11 2 17 5 13 3 -3 4
-12 1 -19z m1070 -20 c-3 -8 -6 -5 -6 6 -1 11 2 17 5 13 3 -3 4 -12 1 -19z
m450 0 c-3 -8 -6 -5 -6 6 -1 11 2 17 5 13 3 -3 4 -12 1 -19z m-1310 -65 c-3
-10 -5 -4 -5 12 0 17 2 24 5 18 2 -7 2 -21 0 -30z m-230 -25 c-3 -7 -5 -2 -5
12 0 14 2 19 5 13 2 -7 2 -19 0 -25z m2831 5 c-21 -2 -55 -2 -75 0 -21 2 -4 4
37 4 41 0 58 -2 38 -4z m-2611 -40 c-3 -10 -5 -4 -5 12 0 17 2 24 5 18 2 -7 2
-21 0 -30z m-230 -15 c-3 -7 -5 -2 -5 12 0 14 2 19 5 13 2 -7 2 -19 0 -25z
m860 0 c-3 -7 -5 -2 -5 12 0 14 2 19 5 13 2 -7 2 -19 0 -25z m2340 -50 c-2
-13 -4 -3 -4 22 0 25 2 35 4 23 2 -13 2 -33 0 -45z m-2490 -20 c-3 -8 -6 -5
-6 6 -1 11 2 17 5 13 3 -3 4 -12 1 -19z m-647 -72 c8 -2 -9 -4 -37 -5 -29 0
-53 3 -53 7 0 7 52 6 90 -2z m435 4 c19 -8 19 -9 -2 -9 -12 -1 -25 4 -28 9 -7
12 2 12 30 0z m522 -6 c-3 -3 -12 -4 -19 -1 -8 3 -5 6 6 6 11 1 17 -2 13 -5z
m296 -1 c-7 -2 -19 -2 -25 0 -7 3 -2 5 12 5 14 0 19 -2 13 -5z m1622 -361
c190 -396 434 -679 772 -895 40 -26 70 -40 66 -32 -3 8 -10 15 -17 15 -6 0
-12 9 -13 20 -1 11 3 20 9 20 6 0 9 2 6 5 -8 9 -38 -6 -32 -16 3 -5 -3 -6 -12
-2 -13 5 -10 10 17 24 21 11 38 14 44 8 22 -22 24 -6 3 24 l-23 32 25 -17
c103 -72 345 -188 500 -238 244 -80 421 -105 698 -97 229 7 376 31 563 94
l115 39 61 -41 c34 -22 62 -43 62 -46 1 -8 -141 -64 -249 -98 -286 -89 -593
-111 -927 -65 -94 13 -326 64 -398 89 -17 6 -17 5 -5 -5 12 -9 10 -10 -10 -4
-14 3 -38 13 -55 20 -24 11 -25 13 -5 8 43 -11 19 3 -82 46 -54 23 -103 38
-109 34 -8 -5 -9 -3 -4 6 6 10 4 12 -9 7 -11 -5 -15 -3 -10 5 5 8 2 9 -10 5
-11 -5 -15 -3 -10 5 5 8 2 9 -10 5 -11 -5 -15 -3 -10 5 5 8 2 9 -10 5 -11 -5
-15 -3 -10 5 5 8 2 9 -10 5 -11 -5 -15 -3 -10 5 5 8 2 9 -9 5 -10 -4 -16 -2
-14 5 1 6 -4 13 -12 16 -9 3 -11 0 -6 -9 5 -8 6 -12 2 -9 -3 3 -6 10 -7 15 -1
9 -83 65 -96 65 -3 0 -2 -6 2 -12 4 -8 3 -10 -2 -5 -5 5 -9 14 -9 19 0 6 -6
13 -14 16 -9 3 -11 0 -6 -9 5 -8 4 -11 -1 -6 -5 5 -9 14 -9 19 0 6 -6 13 -14
16 -9 3 -11 0 -5 -9 7 -12 5 -12 -9 0 -19 15 -23 26 -5 15 7 -4 8 -3 4 5 -4 7
-13 10 -19 8 -16 -5 -69 32 -62 43 6 10 -35 41 -45 35 -4 -2 -36 24 -72 58
-35 34 -44 44 -19 22 l46 -40 -44 47 c-24 26 -49 45 -54 41 -5 -3 -34 21 -64
53 -187 200 -357 470 -442 703 -17 47 -31 86 -31 87 0 1 8 0 18 -3 10 -3 47
-67 97 -171z m2392 45 c195 -380 628 -662 1111 -723 95 -12 170 -15 295 -10
l169 6 -6 -28 c-3 -15 -15 -85 -26 -157 -12 -71 -23 -140 -26 -152 -4 -22 -9
-23 -87 -21 l-82 2 76 3 77 4 21 137 c12 75 24 148 27 162 l6 26 -209 1 c-170
1 -228 5 -318 23 -179 35 -225 49 -367 112 -265 118 -516 337 -652 571 -22 37
-43 67 -47 67 -5 0 -6 7 -3 15 5 11 1 14 -12 9 -14 -4 -16 -3 -5 4 7 5 10 15
7 21 -4 6 -4 11 1 11 4 0 27 -37 50 -83z m-2943 15 c-12 -9 -67 -57 -123 -106
-71 -63 -100 -94 -96 -105 5 -13 4 -14 -7 -3 -10 10 -5 20 31 55 97 92 206
186 210 181 3 -3 -4 -13 -15 -22z m5486 -147 c0 -2 -64 -47 -142 -99 -388
-258 -763 -373 -1143 -350 -72 4 -112 10 -99 14 14 6 20 18 22 45 3 43 -19 74
-52 76 -18 1 -18 2 4 8 23 7 22 8 -14 15 -21 4 -36 10 -33 13 3 3 48 -5 99
-17 122 -30 369 -32 533 -6 295 47 600 156 783 281 38 26 42 28 42 20z m1083
-114 c-21 -27 -40 -47 -42 -45 -4 3 69 94 76 94 2 0 -13 -22 -34 -49z m-6764
-1 c11 -24 11 -24 -3 -6 -9 11 -16 24 -16 30 0 12 5 7 19 -24z m6661 -119
c-52 -60 -69 -75 -53 -47 12 21 97 114 102 110 2 -2 -20 -30 -49 -63z m-6504
-185 c11 -22 27 -50 37 -61 10 -11 21 -31 24 -45 3 -14 11 -29 17 -33 7 -6 6
-7 -4 -4 -14 3 -128 209 -129 232 -1 15 35 -42 55 -89z m1404 -472 c0 -2 -9 0
-20 6 -11 6 -20 13 -20 16 0 2 9 0 20 -6 11 -6 20 -13 20 -16z m2663 -11 c-7
-2 -19 -2 -25 0 -7 3 -2 5 12 5 14 0 19 -2 13 -5z m44 -9 c-3 -3 -12 -4 -19
-1 -8 3 -5 6 6 6 11 1 17 -2 13 -5z m206 -31 c-7 -2 -19 -2 -25 0 -7 3 -2 5
12 5 14 0 19 -2 13 -5z m-3624 -167 c-23 -58 -44 -104 -46 -102 -2 2 15 52 38
110 23 59 43 105 46 103 2 -2 -15 -52 -38 -111z m1266 -21 c39 -17 21 -18 -25
0 -19 7 -28 14 -20 14 8 0 29 -6 45 -14z m245 -56 c16 -5 6 -6 -25 -2 -27 3
-61 10 -75 14 -16 5 -6 6 25 2 27 -3 61 -10 75 -14z m607 -25 c-3 -3 -12 -4
-19 -1 -8 3 -5 6 6 6 11 1 17 -2 13 -5z m-1050 -212 c43 -16 118 -39 166 -53
82 -22 86 -24 55 -31 -18 -4 -51 -2 -73 3 -53 14 -215 71 -215 76 0 2 10 1 23
-3 49 -15 50 -13 2 10 -67 33 -53 32 42 -2z m1678 -42 c-11 -5 -27 -9 -35 -9
-9 0 -8 4 5 9 11 5 27 9 35 9 9 0 8 -4 -5 -9z m-521 -237 c-4 -22 -3 -25 5
-13 9 13 11 12 10 -5 -1 -32 -27 -103 -29 -80 -1 12 -9 0 -20 -30 -22 -60 -26
-48 -6 21 8 27 20 68 26 92 12 46 24 59 14 15z m-737 -45 c-3 -8 -6 -5 -6 6
-1 11 2 17 5 13 3 -3 4 -12 1 -19z m10 -50 c-3 -8 -6 -5 -6 6 -1 11 2 17 5 13
3 -3 4 -12 1 -19z m10 -60 c-3 -7 -5 -2 -5 12 0 14 2 19 5 13 2 -7 2 -19 0
-25z m-20 0 c-3 -8 -6 -5 -6 6 -1 11 2 17 5 13 3 -3 4 -12 1 -19z m75 -92 c17
-3 69 -6 117 -7 47 -1 127 -4 176 -8 85 -7 87 -8 30 -11 -50 -2 -55 -4 -30
-10 25 -6 21 -8 -25 -9 -84 -2 -307 11 -319 18 -5 4 -13 26 -17 50 -5 32 -4
42 4 37 7 -4 12 -1 13 6 1 7 5 -3 11 -23 8 -30 15 -38 40 -43z"/>
<path d="M7903 7633 c9 -2 25 -2 35 0 9 3 1 5 -18 5 -19 0 -27 -2 -17 -5z"/>
<path d="M8075 7610 c109 -20 131 -23 123 -14 -7 7 -176 34 -203 33 -11 -1 25
-9 80 -19z"/>
<path d="M8360 7560 c0 -5 5 -10 11 -10 5 0 7 5 4 10 -3 6 -8 10 -11 10 -2 0
-4 -4 -4 -10z"/>
<path d="M10348 7173 c18 -2 45 -2 60 0 15 2 0 4 -33 4 -33 0 -45 -2 -27 -4z"/>
<path d="M10360 7146 c-28 -8 -39 -15 -30 -18 9 -4 10 -7 3 -7 -7 -1 -13 -5
-13 -11 0 -14 59 -12 73 3 11 11 23 49 15 46 -2 -1 -23 -6 -48 -13z"/>
<path d="M10440 6990 c8 -5 22 -10 30 -10 13 0 13 1 0 10 -8 5 -22 10 -30 10
-13 0 -13 -1 0 -10z"/>
<path d="M9058 6853 c7 -3 16 -2 19 1 4 3 -2 6 -13 5 -11 0 -14 -3 -6 -6z"/>
<path d="M9005 6819 c-4 -6 -14 -8 -24 -4 -13 5 -14 4 -3 -6 10 -11 15 -10 29
4 10 9 14 17 11 17 -4 0 -10 -5 -13 -11z"/>
<path d="M9120 6780 c-9 -6 -10 -10 -3 -10 6 0 15 5 18 10 8 12 4 12 -15 0z"/>
<path d="M8909 6770 c0 -3 -2 -13 -4 -22 -2 -10 0 -20 5 -23 12 -8 19 20 9 36
-5 8 -9 12 -10 9z"/>
<path d="M8980 6720 c0 -5 5 -10 10 -10 6 0 10 5 10 10 0 6 -4 10 -10 10 -5 0
-10 -4 -10 -10z"/>
<path d="M8521 6412 c-32 -46 -25 -61 11 -24 23 23 29 35 21 43 -8 8 -16 2
-32 -19z m20 -5 c-10 -9 -11 -8 -5 6 3 10 9 15 12 12 3 -3 0 -11 -7 -18z"/>
<path d="M8456 6332 c-22 -27 -24 -32 -7 -17 20 17 47 55 39 55 -2 0 -16 -17
-32 -38z"/>
<path d="M8850 6680 c0 -5 5 -10 10 -10 6 0 10 5 10 10 0 6 -4 10 -10 10 -5 0
-10 -4 -10 -10z"/>
<path d="M8835 6630 c-3 -5 -12 -7 -20 -3 -8 3 -15 3 -15 0 0 -13 30 -14 40
-1 7 8 10 14 7 14 -3 0 -8 -4 -12 -10z"/>
<path d="M8756 6589 c3 -6 0 -15 -7 -20 -8 -5 -9 -9 -4 -9 19 0 38 18 31 29
-4 6 -12 11 -17 11 -6 0 -7 -5 -3 -11z"/>
<path d="M12121 5174 c0 -11 3 -14 6 -6 3 7 2 16 -1 19 -3 4 -6 -2 -5 -13z"/>
<path d="M9450 5599 c0 -6 -9 -8 -21 -4 -13 5 -19 3 -15 -3 3 -5 -2 -13 -11
-16 -12 -5 -14 -9 -5 -18 9 -9 16 -7 28 8 8 10 12 13 9 6 -6 -11 -3 -12 13 -3
13 7 19 17 16 26 -7 17 -14 20 -14 4z"/>
<path d="M10175 5638 c23 -13 126 -21 104 -8 -7 5 -24 7 -35 4 -12 -3 -25 -1
-28 5 -4 6 -19 11 -34 11 -25 -1 -26 -1 -7 -12z"/>
<path d="M9670 5608 c0 -5 -4 -6 -10 -3 -5 3 -10 -1 -10 -9 0 -9 5 -16 10 -16
6 0 10 4 10 9 0 5 10 11 23 13 l22 3 -22 7 c-13 3 -23 2 -23 -4z"/>
<path d="M11227 5763 c-4 -3 -7 -11 -7 -17 0 -6 5 -5 12 2 6 6 9 14 7 17 -3 3
-9 2 -12 -2z"/>
<path d="M3742 5580 c0 -14 2 -19 5 -12 2 6 2 18 0 25 -3 6 -5 1 -5 -13z"/>
<path d="M4232 5520 c0 -14 2 -19 5 -12 2 6 2 18 0 25 -3 6 -5 1 -5 -13z"/>
<path d="M4814 5885 c-2 -5 -10 -55 -18 -110 -8 -55 -18 -119 -22 -142 l-7
-43 115 0 c127 0 138 5 138 60 0 19 7 75 16 124 8 48 14 96 12 105 -3 14 -19
16 -117 16 -67 0 -115 -4 -117 -10z"/>
<path d="M4850 5571 c-33 -7 -32 -7 24 -15 37 -5 62 -4 68 2 6 6 16 8 23 6 7
-3 15 -2 18 3 7 10 -86 13 -133 4z"/>
<path d="M5431 5554 c0 -11 3 -14 6 -6 3 7 2 16 -1 19 -3 4 -6 -2 -5 -13z"/>
<path d="M5560 5480 c0 -5 4 -10 9 -10 6 0 13 5 16 10 3 6 -1 10 -9 10 -9 0
-16 -4 -16 -10z"/>
<path d="M5391 5464 c0 -11 3 -14 6 -6 3 7 2 16 -1 19 -3 4 -6 -2 -5 -13z"/>
<path d="M5650 4811 c0 -6 4 -13 10 -16 6 -3 7 1 4 9 -7 18 -14 21 -14 7z"/>
<path d="M6280 3896 c0 -2 8 -10 18 -17 15 -13 16 -12 3 4 -13 16 -21 21 -21
13z"/>
<path d="M6361 3827 c2 -1 15 -11 29 -22 l25 -20 -19 23 c-11 12 -24 22 -29
22 -6 0 -8 -1 -6 -3z"/>
<path d="M6605 3739 c-4 -6 -5 -12 -2 -15 2 -3 7 2 10 11 7 17 1 20 -8 4z"/>
<path d="M9308 4263 c7 -3 16 -2 19 1 4 3 -2 6 -13 5 -11 0 -14 -3 -6 -6z"/>
<path d="M9325 4250 c-13 -5 -14 -9 -5 -9 8 0 24 4 35 9 13 5 14 9 5 9 -8 0
-24 -4 -35 -9z"/>
<path d="M7398 2603 c6 -2 18 -2 25 0 6 3 1 5 -13 5 -14 0 -19 -2 -12 -5z"/>
<path d="M7473 2603 c15 -2 39 -2 55 0 15 2 2 4 -28 4 -30 0 -43 -2 -27 -4z"/>
</g>
</svg>
